<mxfile host="Electron" modified="2023-12-17T16:49:13.346Z" agent="Mozilla/5.0 (Macintosh; Intel Mac OS X 10_15_7) AppleWebKit/537.36 (KHTML, like Gecko) draw.io/22.1.2 Chrome/114.0.5735.289 Electron/25.9.4 Safari/537.36" etag="o-v97LtWTvKtOB50qYL3" version="22.1.2" type="device" pages="2">
  <diagram name="PÃ¡gina-1" id="GAR4R28EWUCzNYiQtYr6">
    <mxGraphModel dx="1193" dy="843" grid="1" gridSize="10" guides="1" tooltips="1" connect="1" arrows="1" fold="1" page="1" pageScale="1" pageWidth="1169" pageHeight="827" math="0" shadow="0">
      <root>
        <mxCell id="0" />
        <mxCell id="1" parent="0" />
        <mxCell id="BLcdpZsHdNyAsSCQdywc-11" style="edgeStyle=orthogonalEdgeStyle;rounded=0;orthogonalLoop=1;jettySize=auto;html=1;entryX=0.5;entryY=0;entryDx=0;entryDy=0;" parent="1" target="BLcdpZsHdNyAsSCQdywc-34" edge="1">
          <mxGeometry relative="1" as="geometry">
            <mxPoint x="912.5" y="80" as="sourcePoint" />
            <mxPoint x="914" y="165" as="targetPoint" />
          </mxGeometry>
        </mxCell>
        <mxCell id="FmNl-kXJ-F9vlVwmfRV5-4" style="edgeStyle=orthogonalEdgeStyle;rounded=0;orthogonalLoop=1;jettySize=auto;html=1;exitX=0;exitY=0.5;exitDx=0;exitDy=0;entryX=1;entryY=0.5;entryDx=0;entryDy=0;" parent="1" source="BLcdpZsHdNyAsSCQdywc-1" target="BLcdpZsHdNyAsSCQdywc-19" edge="1">
          <mxGeometry relative="1" as="geometry">
            <mxPoint x="938.5" y="308" as="sourcePoint" />
            <mxPoint x="1120.54" y="85" as="targetPoint" />
          </mxGeometry>
        </mxCell>
        <mxCell id="BLcdpZsHdNyAsSCQdywc-1" value="district" style="rounded=1;whiteSpace=wrap;html=1;fontFamily=Courier New;fontSize=15;" parent="1" vertex="1">
          <mxGeometry x="852.5" y="248" width="120" height="60" as="geometry" />
        </mxCell>
        <mxCell id="FmNl-kXJ-F9vlVwmfRV5-9" style="edgeStyle=orthogonalEdgeStyle;rounded=0;orthogonalLoop=1;jettySize=auto;html=1;exitX=0.5;exitY=1;exitDx=0;exitDy=0;entryX=0;entryY=0.5;entryDx=0;entryDy=0;" parent="1" source="BLcdpZsHdNyAsSCQdywc-2" target="BLcdpZsHdNyAsSCQdywc-29" edge="1">
          <mxGeometry relative="1" as="geometry" />
        </mxCell>
        <mxCell id="pCOlOG4T80mEV2TOWazf-6" style="edgeStyle=orthogonalEdgeStyle;rounded=0;orthogonalLoop=1;jettySize=auto;html=1;exitX=0.5;exitY=1;exitDx=0;exitDy=0;entryX=0;entryY=0.5;entryDx=0;entryDy=0;" parent="1" source="BLcdpZsHdNyAsSCQdywc-2" target="BLcdpZsHdNyAsSCQdywc-17" edge="1">
          <mxGeometry relative="1" as="geometry" />
        </mxCell>
        <mxCell id="pCOlOG4T80mEV2TOWazf-7" style="edgeStyle=orthogonalEdgeStyle;rounded=0;orthogonalLoop=1;jettySize=auto;html=1;exitX=0.5;exitY=1;exitDx=0;exitDy=0;entryX=1;entryY=0.5;entryDx=0;entryDy=0;" parent="1" source="BLcdpZsHdNyAsSCQdywc-2" target="BLcdpZsHdNyAsSCQdywc-31" edge="1">
          <mxGeometry relative="1" as="geometry" />
        </mxCell>
        <mxCell id="pCOlOG4T80mEV2TOWazf-8" style="edgeStyle=orthogonalEdgeStyle;rounded=0;orthogonalLoop=1;jettySize=auto;html=1;exitX=0.5;exitY=1;exitDx=0;exitDy=0;entryX=1;entryY=0.5;entryDx=0;entryDy=0;" parent="1" source="BLcdpZsHdNyAsSCQdywc-2" target="BLcdpZsHdNyAsSCQdywc-15" edge="1">
          <mxGeometry relative="1" as="geometry" />
        </mxCell>
        <mxCell id="pCOlOG4T80mEV2TOWazf-9" style="edgeStyle=orthogonalEdgeStyle;rounded=0;orthogonalLoop=1;jettySize=auto;html=1;exitX=0.5;exitY=1;exitDx=0;exitDy=0;entryX=1;entryY=0.5;entryDx=0;entryDy=0;" parent="1" source="BLcdpZsHdNyAsSCQdywc-2" target="pCOlOG4T80mEV2TOWazf-1" edge="1">
          <mxGeometry relative="1" as="geometry" />
        </mxCell>
        <mxCell id="pCOlOG4T80mEV2TOWazf-10" style="edgeStyle=orthogonalEdgeStyle;rounded=0;orthogonalLoop=1;jettySize=auto;html=1;exitX=0.5;exitY=1;exitDx=0;exitDy=0;entryX=1;entryY=0.5;entryDx=0;entryDy=0;" parent="1" source="BLcdpZsHdNyAsSCQdywc-2" target="BLcdpZsHdNyAsSCQdywc-16" edge="1">
          <mxGeometry relative="1" as="geometry" />
        </mxCell>
        <mxCell id="BLcdpZsHdNyAsSCQdywc-2" value="problem" style="rounded=1;whiteSpace=wrap;html=1;fontFamily=Courier New;fontSize=15;" parent="1" vertex="1">
          <mxGeometry x="852.5" y="464" width="120" height="60" as="geometry" />
        </mxCell>
        <mxCell id="BLcdpZsHdNyAsSCQdywc-9" style="edgeStyle=orthogonalEdgeStyle;rounded=0;orthogonalLoop=1;jettySize=auto;html=1;exitX=0.25;exitY=1;exitDx=0;exitDy=0;entryX=0;entryY=0.5;entryDx=0;entryDy=0;" parent="1" source="BLcdpZsHdNyAsSCQdywc-3" target="BLcdpZsHdNyAsSCQdywc-8" edge="1">
          <mxGeometry relative="1" as="geometry" />
        </mxCell>
        <mxCell id="BLcdpZsHdNyAsSCQdywc-10" style="edgeStyle=orthogonalEdgeStyle;rounded=0;orthogonalLoop=1;jettySize=auto;html=1;exitX=1;exitY=0.5;exitDx=0;exitDy=0;entryX=0;entryY=0.5;entryDx=0;entryDy=0;" parent="1" source="BLcdpZsHdNyAsSCQdywc-35" target="BLcdpZsHdNyAsSCQdywc-2" edge="1">
          <mxGeometry relative="1" as="geometry" />
        </mxCell>
        <mxCell id="BLcdpZsHdNyAsSCQdywc-48" style="edgeStyle=orthogonalEdgeStyle;rounded=0;orthogonalLoop=1;jettySize=auto;html=1;exitX=0.25;exitY=1;exitDx=0;exitDy=0;entryX=0;entryY=0.5;entryDx=0;entryDy=0;" parent="1" source="BLcdpZsHdNyAsSCQdywc-3" target="BLcdpZsHdNyAsSCQdywc-47" edge="1">
          <mxGeometry relative="1" as="geometry" />
        </mxCell>
        <mxCell id="FmNl-kXJ-F9vlVwmfRV5-1" style="edgeStyle=orthogonalEdgeStyle;rounded=0;orthogonalLoop=1;jettySize=auto;html=1;exitX=0.25;exitY=1;exitDx=0;exitDy=0;entryX=0;entryY=0.5;entryDx=0;entryDy=0;" parent="1" source="BLcdpZsHdNyAsSCQdywc-3" target="BLcdpZsHdNyAsSCQdywc-51" edge="1">
          <mxGeometry relative="1" as="geometry" />
        </mxCell>
        <mxCell id="FmNl-kXJ-F9vlVwmfRV5-2" style="edgeStyle=orthogonalEdgeStyle;rounded=0;orthogonalLoop=1;jettySize=auto;html=1;exitX=0.25;exitY=1;exitDx=0;exitDy=0;entryX=0;entryY=0.5;entryDx=0;entryDy=0;" parent="1" source="BLcdpZsHdNyAsSCQdywc-3" target="BLcdpZsHdNyAsSCQdywc-6" edge="1">
          <mxGeometry relative="1" as="geometry" />
        </mxCell>
        <mxCell id="BLcdpZsHdNyAsSCQdywc-3" value="user" style="rounded=1;whiteSpace=wrap;html=1;fontFamily=Courier New;fontSize=15;" parent="1" vertex="1">
          <mxGeometry x="226" y="464" width="120" height="60" as="geometry" />
        </mxCell>
        <mxCell id="BLcdpZsHdNyAsSCQdywc-5" value="create_date" style="ellipse;whiteSpace=wrap;html=1;fontFamily=Courier New;fontSize=15;" parent="1" vertex="1">
          <mxGeometry x="715" y="707" width="114" height="50" as="geometry" />
        </mxCell>
        <mxCell id="BLcdpZsHdNyAsSCQdywc-6" value="pass" style="ellipse;whiteSpace=wrap;html=1;fontFamily=Courier New;fontSize=15;" parent="1" vertex="1">
          <mxGeometry x="306" y="541" width="100" height="50" as="geometry" />
        </mxCell>
        <mxCell id="BLcdpZsHdNyAsSCQdywc-7" value="user_name" style="ellipse;whiteSpace=wrap;html=1;fontFamily=Courier New;fontSize=15;" parent="1" vertex="1">
          <mxGeometry x="192" y="374" width="160" height="40" as="geometry" />
        </mxCell>
        <mxCell id="BLcdpZsHdNyAsSCQdywc-8" value="&lt;u&gt;id_user&lt;/u&gt;" style="ellipse;whiteSpace=wrap;html=1;fontFamily=Courier New;fontSize=15;" parent="1" vertex="1">
          <mxGeometry x="446" y="755" width="120" height="50" as="geometry" />
        </mxCell>
        <mxCell id="BLcdpZsHdNyAsSCQdywc-12" style="edgeStyle=orthogonalEdgeStyle;rounded=0;orthogonalLoop=1;jettySize=auto;html=1;exitX=0.25;exitY=0;exitDx=0;exitDy=0;entryX=0.668;entryY=0.997;entryDx=0;entryDy=0;entryPerimeter=0;" parent="1" source="BLcdpZsHdNyAsSCQdywc-3" edge="1" target="BLcdpZsHdNyAsSCQdywc-7">
          <mxGeometry relative="1" as="geometry">
            <mxPoint x="260" y="410" as="targetPoint" />
          </mxGeometry>
        </mxCell>
        <mxCell id="BLcdpZsHdNyAsSCQdywc-15" value="description" style="ellipse;whiteSpace=wrap;html=1;fontFamily=Courier New;fontSize=15;" parent="1" vertex="1">
          <mxGeometry x="712.5" y="587" width="131" height="52" as="geometry" />
        </mxCell>
        <mxCell id="BLcdpZsHdNyAsSCQdywc-16" value="solution_date" style="ellipse;whiteSpace=wrap;html=1;fontFamily=Courier New;fontSize=15;" parent="1" vertex="1">
          <mxGeometry x="712" y="765" width="129" height="52" as="geometry" />
        </mxCell>
        <mxCell id="BLcdpZsHdNyAsSCQdywc-17" value="title" style="ellipse;whiteSpace=wrap;html=1;fontFamily=Courier New;fontSize=15;" parent="1" vertex="1">
          <mxGeometry x="942.5" y="585" width="140" height="60" as="geometry" />
        </mxCell>
        <mxCell id="BLcdpZsHdNyAsSCQdywc-19" value="id_district" style="ellipse;whiteSpace=wrap;html=1;fontFamily=Courier New;fontSize=15;fontStyle=4" parent="1" vertex="1">
          <mxGeometry x="673.5" y="241" width="120" height="50" as="geometry" />
        </mxCell>
        <mxCell id="BLcdpZsHdNyAsSCQdywc-29" value="problem_status" style="ellipse;whiteSpace=wrap;html=1;fontFamily=Courier New;fontSize=15;" parent="1" vertex="1">
          <mxGeometry x="942.5" y="732" width="151" height="70" as="geometry" />
        </mxCell>
        <mxCell id="BLcdpZsHdNyAsSCQdywc-30" value="place_detail" style="ellipse;whiteSpace=wrap;html=1;fontFamily=Courier New;fontSize=15;" parent="1" vertex="1">
          <mxGeometry x="947" y="662" width="142" height="45" as="geometry" />
        </mxCell>
        <mxCell id="BLcdpZsHdNyAsSCQdywc-36" value="" style="edgeStyle=orthogonalEdgeStyle;rounded=0;orthogonalLoop=1;jettySize=auto;html=1;exitX=0.5;exitY=0;exitDx=0;exitDy=0;" parent="1" source="BLcdpZsHdNyAsSCQdywc-1" target="BLcdpZsHdNyAsSCQdywc-34" edge="1">
          <mxGeometry relative="1" as="geometry">
            <mxPoint x="843.5" y="265" as="sourcePoint" />
            <mxPoint x="1013.5" y="265" as="targetPoint" />
          </mxGeometry>
        </mxCell>
        <mxCell id="BLcdpZsHdNyAsSCQdywc-34" value="have" style="rhombus;whiteSpace=wrap;html=1;fontFamily=Courier New;fontSize=15;" parent="1" vertex="1">
          <mxGeometry x="872.5" y="118" width="80" height="80" as="geometry" />
        </mxCell>
        <mxCell id="BLcdpZsHdNyAsSCQdywc-41" value="1" style="text;html=1;align=center;verticalAlign=middle;resizable=0;points=[];autosize=1;strokeColor=none;fillColor=none;fontFamily=Courier New;fontSize=15;" parent="1" vertex="1">
          <mxGeometry x="737.5" y="600" width="30" height="30" as="geometry" />
        </mxCell>
        <mxCell id="BLcdpZsHdNyAsSCQdywc-42" value="n:m" style="text;html=1;align=center;verticalAlign=middle;resizable=0;points=[];autosize=1;strokeColor=none;fillColor=none;fontFamily=Courier New;fontSize=15;" parent="1" vertex="1">
          <mxGeometry x="632.5" y="261" width="50" height="30" as="geometry" />
        </mxCell>
        <mxCell id="BLcdpZsHdNyAsSCQdywc-47" value="user_type" style="ellipse;whiteSpace=wrap;html=1;fontFamily=Courier New;fontSize=15;" parent="1" vertex="1">
          <mxGeometry x="406" y="595" width="130" height="60" as="geometry" />
        </mxCell>
        <mxCell id="BLcdpZsHdNyAsSCQdywc-51" value="email" style="ellipse;whiteSpace=wrap;html=1;fontFamily=Courier New;fontSize=15;" parent="1" vertex="1">
          <mxGeometry x="446" y="665" width="190" height="65" as="geometry" />
        </mxCell>
        <mxCell id="BLcdpZsHdNyAsSCQdywc-31" value="&lt;u&gt;id_problem&lt;/u&gt;" style="ellipse;whiteSpace=wrap;html=1;fontFamily=Courier New;fontSize=15;" parent="1" vertex="1">
          <mxGeometry x="720" y="537" width="112" height="40" as="geometry" />
        </mxCell>
        <mxCell id="FmNl-kXJ-F9vlVwmfRV5-10" style="edgeStyle=orthogonalEdgeStyle;rounded=0;orthogonalLoop=1;jettySize=auto;html=1;entryX=0.01;entryY=0.66;entryDx=0;entryDy=0;entryPerimeter=0;" parent="1" target="BLcdpZsHdNyAsSCQdywc-30" edge="1">
          <mxGeometry relative="1" as="geometry">
            <mxPoint x="912.5" y="512" as="sourcePoint" />
            <Array as="points">
              <mxPoint x="912.5" y="692" />
            </Array>
          </mxGeometry>
        </mxCell>
        <mxCell id="pCOlOG4T80mEV2TOWazf-1" value="photo" style="ellipse;whiteSpace=wrap;html=1;fontFamily=Courier New;fontSize=15;" parent="1" vertex="1">
          <mxGeometry x="712.5" y="645" width="131" height="52" as="geometry" />
        </mxCell>
        <mxCell id="pCOlOG4T80mEV2TOWazf-3" style="edgeStyle=orthogonalEdgeStyle;rounded=0;orthogonalLoop=1;jettySize=auto;html=1;exitX=0;exitY=0.5;exitDx=0;exitDy=0;entryX=1;entryY=0.5;entryDx=0;entryDy=0;" parent="1" source="pCOlOG4T80mEV2TOWazf-4" target="pCOlOG4T80mEV2TOWazf-5" edge="1">
          <mxGeometry relative="1" as="geometry">
            <mxPoint x="771.5" y="5" as="sourcePoint" />
            <mxPoint x="761.5" y="95" as="targetPoint" />
          </mxGeometry>
        </mxCell>
        <mxCell id="pCOlOG4T80mEV2TOWazf-4" value="city" style="rounded=1;whiteSpace=wrap;html=1;fontFamily=Courier New;fontSize=15;" parent="1" vertex="1">
          <mxGeometry x="852.5" y="20" width="120" height="60" as="geometry" />
        </mxCell>
        <mxCell id="pCOlOG4T80mEV2TOWazf-5" value="id_city" style="ellipse;whiteSpace=wrap;html=1;fontFamily=Courier New;fontSize=15;fontStyle=4" parent="1" vertex="1">
          <mxGeometry x="682.5" y="25" width="120" height="50" as="geometry" />
        </mxCell>
        <mxCell id="pCOlOG4T80mEV2TOWazf-11" style="edgeStyle=orthogonalEdgeStyle;rounded=0;orthogonalLoop=1;jettySize=auto;html=1;exitX=0.5;exitY=1;exitDx=0;exitDy=0;entryX=0.5;entryY=-0.1;entryDx=0;entryDy=0;entryPerimeter=0;" parent="1" source="BLcdpZsHdNyAsSCQdywc-1" target="BLcdpZsHdNyAsSCQdywc-2" edge="1">
          <mxGeometry relative="1" as="geometry" />
        </mxCell>
        <mxCell id="pCOlOG4T80mEV2TOWazf-12" value="&lt;font style=&quot;font-size: 15px;&quot; face=&quot;Courier New&quot;&gt;1&lt;/font&gt;" style="text;html=1;align=center;verticalAlign=middle;resizable=0;points=[];autosize=1;strokeColor=none;fillColor=none;" parent="1" vertex="1">
          <mxGeometry x="877.5" y="78" width="30" height="30" as="geometry" />
        </mxCell>
        <mxCell id="pCOlOG4T80mEV2TOWazf-13" value="&lt;font style=&quot;font-size: 15px;&quot; face=&quot;Courier New&quot;&gt;n&lt;/font&gt;" style="text;html=1;align=center;verticalAlign=middle;resizable=0;points=[];autosize=1;strokeColor=none;fillColor=none;" parent="1" vertex="1">
          <mxGeometry x="887.5" y="218" width="30" height="30" as="geometry" />
        </mxCell>
        <mxCell id="pCOlOG4T80mEV2TOWazf-17" value="" style="edgeStyle=orthogonalEdgeStyle;rounded=0;orthogonalLoop=1;jettySize=auto;html=1;exitX=1;exitY=0.5;exitDx=0;exitDy=0;entryX=0;entryY=0.5;entryDx=0;entryDy=0;" parent="1" source="BLcdpZsHdNyAsSCQdywc-3" target="BLcdpZsHdNyAsSCQdywc-35" edge="1">
          <mxGeometry relative="1" as="geometry">
            <mxPoint x="346" y="494" as="sourcePoint" />
            <mxPoint x="853" y="494" as="targetPoint" />
          </mxGeometry>
        </mxCell>
        <mxCell id="BLcdpZsHdNyAsSCQdywc-35" value="register" style="rhombus;whiteSpace=wrap;html=1;fontFamily=Courier New;fontSize=15;" parent="1" vertex="1">
          <mxGeometry x="510" y="454" width="94" height="80" as="geometry" />
        </mxCell>
        <mxCell id="1_8PZ2_dkUsIVvEf_2Z9-1" value="&lt;font style=&quot;font-size: 15px;&quot; face=&quot;Courier New&quot;&gt;1:n&lt;/font&gt;" style="text;html=1;align=center;verticalAlign=middle;resizable=0;points=[];autosize=1;strokeColor=none;fillColor=none;" vertex="1" parent="1">
          <mxGeometry x="715" y="138" width="50" height="30" as="geometry" />
        </mxCell>
        <mxCell id="1_8PZ2_dkUsIVvEf_2Z9-3" value="have" style="rhombus;whiteSpace=wrap;html=1;fontFamily=Courier New;fontSize=15;" vertex="1" parent="1">
          <mxGeometry x="872.5" y="334" width="80" height="80" as="geometry" />
        </mxCell>
        <mxCell id="1_8PZ2_dkUsIVvEf_2Z9-5" value="&lt;span style=&quot;color: rgb(240, 240, 240); font-family: &amp;quot;Courier New&amp;quot;; font-size: 15px; font-style: normal; font-variant-ligatures: normal; font-variant-caps: normal; font-weight: 400; letter-spacing: normal; orphans: 2; text-align: center; text-indent: 0px; text-transform: none; widows: 2; word-spacing: 0px; -webkit-text-stroke-width: 0px; background-color: rgb(27, 29, 30); text-decoration-thickness: initial; text-decoration-style: initial; text-decoration-color: initial; float: none; display: inline !important;&quot;&gt;n&lt;/span&gt;" style="text;whiteSpace=wrap;html=1;" vertex="1" parent="1">
          <mxGeometry x="892.5" y="308" width="40" height="40" as="geometry" />
        </mxCell>
        <mxCell id="1_8PZ2_dkUsIVvEf_2Z9-6" value="&lt;span style=&quot;color: rgb(240, 240, 240); font-family: &amp;quot;Courier New&amp;quot;; font-size: 15px; font-style: normal; font-variant-ligatures: normal; font-variant-caps: normal; font-weight: 400; letter-spacing: normal; orphans: 2; text-align: center; text-indent: 0px; text-transform: none; widows: 2; word-spacing: 0px; -webkit-text-stroke-width: 0px; background-color: rgb(27, 29, 30); text-decoration-thickness: initial; text-decoration-style: initial; text-decoration-color: initial; float: none; display: inline !important;&quot;&gt;m&lt;/span&gt;" style="text;whiteSpace=wrap;html=1;" vertex="1" parent="1">
          <mxGeometry x="882.5" y="430" width="40" height="40" as="geometry" />
        </mxCell>
        <mxCell id="1_8PZ2_dkUsIVvEf_2Z9-7" value="&lt;span style=&quot;color: rgb(240, 240, 240); font-family: &amp;quot;Courier New&amp;quot;; font-size: 15px; font-style: normal; font-variant-ligatures: normal; font-variant-caps: normal; font-weight: 400; letter-spacing: normal; orphans: 2; text-align: center; text-indent: 0px; text-transform: none; widows: 2; word-spacing: 0px; -webkit-text-stroke-width: 0px; background-color: rgb(27, 29, 30); text-decoration-thickness: initial; text-decoration-style: initial; text-decoration-color: initial; float: none; display: inline !important;&quot;&gt;n:m&lt;/span&gt;" style="text;whiteSpace=wrap;html=1;" vertex="1" parent="1">
          <mxGeometry x="830" y="360" width="40" height="40" as="geometry" />
        </mxCell>
        <mxCell id="1_8PZ2_dkUsIVvEf_2Z9-8" value="&lt;span style=&quot;color: rgb(240, 240, 240); font-family: &amp;quot;Courier New&amp;quot;; font-size: 15px; font-style: normal; font-variant-ligatures: normal; font-variant-caps: normal; font-weight: 400; letter-spacing: normal; orphans: 2; text-align: center; text-indent: 0px; text-transform: none; widows: 2; word-spacing: 0px; -webkit-text-stroke-width: 0px; background-color: rgb(27, 29, 30); text-decoration-thickness: initial; text-decoration-style: initial; text-decoration-color: initial; float: none; display: inline !important;&quot;&gt;1&lt;/span&gt;" style="text;whiteSpace=wrap;html=1;" vertex="1" parent="1">
          <mxGeometry x="370" y="470" width="40" height="40" as="geometry" />
        </mxCell>
        <mxCell id="1_8PZ2_dkUsIVvEf_2Z9-9" value="&lt;span style=&quot;color: rgb(240, 240, 240); font-family: &amp;quot;Courier New&amp;quot;; font-size: 15px; font-style: normal; font-variant-ligatures: normal; font-variant-caps: normal; font-weight: 400; letter-spacing: normal; orphans: 2; text-align: center; text-indent: 0px; text-transform: none; widows: 2; word-spacing: 0px; -webkit-text-stroke-width: 0px; background-color: rgb(27, 29, 30); text-decoration-thickness: initial; text-decoration-style: initial; text-decoration-color: initial; float: none; display: inline !important;&quot;&gt;n&lt;/span&gt;" style="text;whiteSpace=wrap;html=1;" vertex="1" parent="1">
          <mxGeometry x="820" y="470" width="40" height="40" as="geometry" />
        </mxCell>
        <mxCell id="1_8PZ2_dkUsIVvEf_2Z9-10" value="&lt;span style=&quot;color: rgb(240, 240, 240); font-family: &amp;quot;Courier New&amp;quot;; font-size: 15px; font-style: normal; font-variant-ligatures: normal; font-variant-caps: normal; font-weight: 400; letter-spacing: normal; orphans: 2; text-align: center; text-indent: 0px; text-transform: none; widows: 2; word-spacing: 0px; -webkit-text-stroke-width: 0px; background-color: rgb(27, 29, 30); text-decoration-thickness: initial; text-decoration-style: initial; text-decoration-color: initial; float: none; display: inline !important;&quot;&gt;1:n&lt;/span&gt;" style="text;whiteSpace=wrap;html=1;" vertex="1" parent="1">
          <mxGeometry x="530" y="420" width="40" height="40" as="geometry" />
        </mxCell>
      </root>
    </mxGraphModel>
  </diagram>
  <diagram id="8pz4o5p5knSB4_9SY_7Q" name="PÃ¡gina-2">
    <mxGraphModel dx="954" dy="674" grid="1" gridSize="10" guides="1" tooltips="1" connect="1" arrows="1" fold="1" page="1" pageScale="1" pageWidth="827" pageHeight="1169" math="0" shadow="0">
      <root>
        <mxCell id="0" />
        <mxCell id="1" parent="0" />
        <mxCell id="dCn2HgZfOZdPRtcsAnI8-14" value="district" style="shape=table;startSize=30;container=1;collapsible=1;childLayout=tableLayout;fixedRows=1;rowLines=0;fontStyle=1;align=center;resizeLast=1;html=1;whiteSpace=wrap;fontFamily=Courier New;fontSize=15;" parent="1" vertex="1">
          <mxGeometry x="610" y="300" width="210" height="120" as="geometry" />
        </mxCell>
        <mxCell id="IVFl2d47y_IsgbFFyikV-51" value="" style="shape=tableRow;horizontal=0;startSize=0;swimlaneHead=0;swimlaneBody=0;fillColor=none;collapsible=0;dropTarget=0;points=[[0,0.5],[1,0.5]];portConstraint=eastwest;top=0;left=0;right=0;bottom=1;html=1;" parent="dCn2HgZfOZdPRtcsAnI8-14" vertex="1">
          <mxGeometry y="30" width="210" height="30" as="geometry" />
        </mxCell>
        <mxCell id="IVFl2d47y_IsgbFFyikV-52" value="&lt;font face=&quot;Courier New&quot;&gt;PK&lt;/font&gt;" style="shape=partialRectangle;connectable=0;fillColor=none;top=0;left=0;bottom=0;right=0;fontStyle=1;overflow=hidden;html=1;whiteSpace=wrap;fontSize=15;" parent="IVFl2d47y_IsgbFFyikV-51" vertex="1">
          <mxGeometry width="60" height="30" as="geometry">
            <mxRectangle width="60" height="30" as="alternateBounds" />
          </mxGeometry>
        </mxCell>
        <mxCell id="IVFl2d47y_IsgbFFyikV-53" value="&lt;font face=&quot;Courier New&quot;&gt;id_district&lt;/font&gt;" style="shape=partialRectangle;connectable=0;fillColor=none;top=0;left=0;bottom=0;right=0;align=left;spacingLeft=6;fontStyle=1;overflow=hidden;html=1;whiteSpace=wrap;fontSize=15;" parent="IVFl2d47y_IsgbFFyikV-51" vertex="1">
          <mxGeometry x="60" width="150" height="30" as="geometry">
            <mxRectangle width="150" height="30" as="alternateBounds" />
          </mxGeometry>
        </mxCell>
        <mxCell id="0sBkbebi3kNoGjMeTg1P-27" value="" style="shape=tableRow;horizontal=0;startSize=0;swimlaneHead=0;swimlaneBody=0;fillColor=none;collapsible=0;dropTarget=0;points=[[0,0.5],[1,0.5]];portConstraint=eastwest;top=0;left=0;right=0;bottom=1;html=1;" parent="dCn2HgZfOZdPRtcsAnI8-14" vertex="1">
          <mxGeometry y="60" width="210" height="30" as="geometry" />
        </mxCell>
        <mxCell id="0sBkbebi3kNoGjMeTg1P-28" value="&lt;font face=&quot;Courier New&quot;&gt;FK&lt;/font&gt;" style="shape=partialRectangle;connectable=0;fillColor=none;top=0;left=0;bottom=0;right=0;fontStyle=1;overflow=hidden;html=1;whiteSpace=wrap;fontSize=15;" parent="0sBkbebi3kNoGjMeTg1P-27" vertex="1">
          <mxGeometry width="60" height="30" as="geometry">
            <mxRectangle width="60" height="30" as="alternateBounds" />
          </mxGeometry>
        </mxCell>
        <mxCell id="0sBkbebi3kNoGjMeTg1P-29" value="&lt;font face=&quot;Courier New&quot;&gt;id_city&lt;/font&gt;" style="shape=partialRectangle;connectable=0;fillColor=none;top=0;left=0;bottom=0;right=0;align=left;spacingLeft=6;fontStyle=1;overflow=hidden;html=1;whiteSpace=wrap;fontSize=15;" parent="0sBkbebi3kNoGjMeTg1P-27" vertex="1">
          <mxGeometry x="60" width="150" height="30" as="geometry">
            <mxRectangle width="150" height="30" as="alternateBounds" />
          </mxGeometry>
        </mxCell>
        <mxCell id="A0xj03TIXSlnZQW4q2QY-1" value="" style="shape=tableRow;horizontal=0;startSize=0;swimlaneHead=0;swimlaneBody=0;fillColor=none;collapsible=0;dropTarget=0;points=[[0,0.5],[1,0.5]];portConstraint=eastwest;top=0;left=0;right=0;bottom=0;html=1;perimeterSpacing=2;" parent="dCn2HgZfOZdPRtcsAnI8-14" vertex="1">
          <mxGeometry y="90" width="210" height="30" as="geometry" />
        </mxCell>
        <mxCell id="A0xj03TIXSlnZQW4q2QY-2" value="" style="shape=partialRectangle;connectable=0;fillColor=none;top=0;left=0;bottom=0;right=0;editable=1;overflow=hidden;html=1;whiteSpace=wrap;fontFamily=Courier New;fontSize=15;" parent="A0xj03TIXSlnZQW4q2QY-1" vertex="1">
          <mxGeometry width="60" height="30" as="geometry">
            <mxRectangle width="60" height="30" as="alternateBounds" />
          </mxGeometry>
        </mxCell>
        <mxCell id="A0xj03TIXSlnZQW4q2QY-3" value="city_name" style="shape=partialRectangle;connectable=0;fillColor=none;top=0;left=0;bottom=0;right=0;align=left;spacingLeft=6;overflow=hidden;html=1;whiteSpace=wrap;fontFamily=Courier New;fontSize=15;" parent="A0xj03TIXSlnZQW4q2QY-1" vertex="1">
          <mxGeometry x="60" width="150" height="30" as="geometry">
            <mxRectangle width="150" height="30" as="alternateBounds" />
          </mxGeometry>
        </mxCell>
        <mxCell id="dCn2HgZfOZdPRtcsAnI8-27" value="problem" style="shape=table;startSize=30;container=1;collapsible=1;childLayout=tableLayout;fixedRows=1;rowLines=0;fontStyle=1;align=center;resizeLast=1;html=1;whiteSpace=wrap;fontFamily=Courier New;fontSize=15;" parent="1" vertex="1">
          <mxGeometry x="586" y="480" width="230" height="270" as="geometry" />
        </mxCell>
        <mxCell id="IVFl2d47y_IsgbFFyikV-60" value="" style="shape=tableRow;horizontal=0;startSize=0;swimlaneHead=0;swimlaneBody=0;fillColor=none;collapsible=0;dropTarget=0;points=[[0,0.5],[1,0.5]];portConstraint=eastwest;top=0;left=0;right=0;bottom=1;html=1;" parent="dCn2HgZfOZdPRtcsAnI8-27" vertex="1">
          <mxGeometry y="30" width="230" height="30" as="geometry" />
        </mxCell>
        <mxCell id="IVFl2d47y_IsgbFFyikV-61" value="&lt;font face=&quot;Courier New&quot;&gt;PK&lt;/font&gt;" style="shape=partialRectangle;connectable=0;fillColor=none;top=0;left=0;bottom=0;right=0;fontStyle=1;overflow=hidden;html=1;whiteSpace=wrap;fontSize=15;" parent="IVFl2d47y_IsgbFFyikV-60" vertex="1">
          <mxGeometry width="60" height="30" as="geometry">
            <mxRectangle width="60" height="30" as="alternateBounds" />
          </mxGeometry>
        </mxCell>
        <mxCell id="IVFl2d47y_IsgbFFyikV-62" value="&lt;font face=&quot;Courier New&quot;&gt;id_problem&lt;/font&gt;" style="shape=partialRectangle;connectable=0;fillColor=none;top=0;left=0;bottom=0;right=0;align=left;spacingLeft=6;fontStyle=5;overflow=hidden;html=1;whiteSpace=wrap;fontSize=15;" parent="IVFl2d47y_IsgbFFyikV-60" vertex="1">
          <mxGeometry x="60" width="170" height="30" as="geometry">
            <mxRectangle width="170" height="30" as="alternateBounds" />
          </mxGeometry>
        </mxCell>
        <mxCell id="dCn2HgZfOZdPRtcsAnI8-31" value="" style="shape=tableRow;horizontal=0;startSize=0;swimlaneHead=0;swimlaneBody=0;fillColor=none;collapsible=0;dropTarget=0;points=[[0,0.5],[1,0.5]];portConstraint=eastwest;top=0;left=0;right=0;bottom=1;html=1;" parent="dCn2HgZfOZdPRtcsAnI8-27" vertex="1">
          <mxGeometry y="60" width="230" height="30" as="geometry" />
        </mxCell>
        <mxCell id="dCn2HgZfOZdPRtcsAnI8-32" value="&lt;font face=&quot;Courier New&quot;&gt;FK&lt;/font&gt;" style="shape=partialRectangle;connectable=0;fillColor=none;top=0;left=0;bottom=0;right=0;fontStyle=1;overflow=hidden;html=1;whiteSpace=wrap;fontSize=15;" parent="dCn2HgZfOZdPRtcsAnI8-31" vertex="1">
          <mxGeometry width="60" height="30" as="geometry">
            <mxRectangle width="60" height="30" as="alternateBounds" />
          </mxGeometry>
        </mxCell>
        <mxCell id="dCn2HgZfOZdPRtcsAnI8-33" value="&lt;font face=&quot;Courier New&quot;&gt;id_district&lt;/font&gt;" style="shape=partialRectangle;connectable=0;fillColor=none;top=0;left=0;bottom=0;right=0;align=left;spacingLeft=6;fontStyle=5;overflow=hidden;html=1;whiteSpace=wrap;fontSize=15;" parent="dCn2HgZfOZdPRtcsAnI8-31" vertex="1">
          <mxGeometry x="60" width="170" height="30" as="geometry">
            <mxRectangle width="170" height="30" as="alternateBounds" />
          </mxGeometry>
        </mxCell>
        <mxCell id="dCn2HgZfOZdPRtcsAnI8-34" value="" style="shape=tableRow;horizontal=0;startSize=0;swimlaneHead=0;swimlaneBody=0;fillColor=none;collapsible=0;dropTarget=0;points=[[0,0.5],[1,0.5]];portConstraint=eastwest;top=0;left=0;right=0;bottom=0;html=1;" parent="dCn2HgZfOZdPRtcsAnI8-27" vertex="1">
          <mxGeometry y="90" width="230" height="30" as="geometry" />
        </mxCell>
        <mxCell id="dCn2HgZfOZdPRtcsAnI8-35" value="" style="shape=partialRectangle;connectable=0;fillColor=none;top=0;left=0;bottom=0;right=0;editable=1;overflow=hidden;html=1;whiteSpace=wrap;fontFamily=Courier New;fontSize=15;" parent="dCn2HgZfOZdPRtcsAnI8-34" vertex="1">
          <mxGeometry width="60" height="30" as="geometry">
            <mxRectangle width="60" height="30" as="alternateBounds" />
          </mxGeometry>
        </mxCell>
        <mxCell id="dCn2HgZfOZdPRtcsAnI8-36" value="title" style="shape=partialRectangle;connectable=0;fillColor=none;top=0;left=0;bottom=0;right=0;align=left;spacingLeft=6;overflow=hidden;html=1;whiteSpace=wrap;fontFamily=Courier New;fontSize=15;" parent="dCn2HgZfOZdPRtcsAnI8-34" vertex="1">
          <mxGeometry x="60" width="170" height="30" as="geometry">
            <mxRectangle width="170" height="30" as="alternateBounds" />
          </mxGeometry>
        </mxCell>
        <mxCell id="dCn2HgZfOZdPRtcsAnI8-37" value="" style="shape=tableRow;horizontal=0;startSize=0;swimlaneHead=0;swimlaneBody=0;fillColor=none;collapsible=0;dropTarget=0;points=[[0,0.5],[1,0.5]];portConstraint=eastwest;top=0;left=0;right=0;bottom=0;html=1;" parent="dCn2HgZfOZdPRtcsAnI8-27" vertex="1">
          <mxGeometry y="120" width="230" height="30" as="geometry" />
        </mxCell>
        <mxCell id="dCn2HgZfOZdPRtcsAnI8-38" value="" style="shape=partialRectangle;connectable=0;fillColor=none;top=0;left=0;bottom=0;right=0;editable=1;overflow=hidden;html=1;whiteSpace=wrap;fontFamily=Courier New;fontSize=15;" parent="dCn2HgZfOZdPRtcsAnI8-37" vertex="1">
          <mxGeometry width="60" height="30" as="geometry">
            <mxRectangle width="60" height="30" as="alternateBounds" />
          </mxGeometry>
        </mxCell>
        <mxCell id="dCn2HgZfOZdPRtcsAnI8-39" value="description" style="shape=partialRectangle;connectable=0;fillColor=none;top=0;left=0;bottom=0;right=0;align=left;spacingLeft=6;overflow=hidden;html=1;whiteSpace=wrap;fontFamily=Courier New;fontSize=15;" parent="dCn2HgZfOZdPRtcsAnI8-37" vertex="1">
          <mxGeometry x="60" width="170" height="30" as="geometry">
            <mxRectangle width="170" height="30" as="alternateBounds" />
          </mxGeometry>
        </mxCell>
        <mxCell id="0sBkbebi3kNoGjMeTg1P-1" value="" style="shape=tableRow;horizontal=0;startSize=0;swimlaneHead=0;swimlaneBody=0;fillColor=none;collapsible=0;dropTarget=0;points=[[0,0.5],[1,0.5]];portConstraint=eastwest;top=0;left=0;right=0;bottom=0;html=1;" parent="dCn2HgZfOZdPRtcsAnI8-27" vertex="1">
          <mxGeometry y="150" width="230" height="30" as="geometry" />
        </mxCell>
        <mxCell id="0sBkbebi3kNoGjMeTg1P-2" value="" style="shape=partialRectangle;connectable=0;fillColor=none;top=0;left=0;bottom=0;right=0;editable=1;overflow=hidden;html=1;whiteSpace=wrap;fontFamily=Courier New;fontSize=15;" parent="0sBkbebi3kNoGjMeTg1P-1" vertex="1">
          <mxGeometry width="60" height="30" as="geometry">
            <mxRectangle width="60" height="30" as="alternateBounds" />
          </mxGeometry>
        </mxCell>
        <mxCell id="0sBkbebi3kNoGjMeTg1P-3" value="create_date" style="shape=partialRectangle;connectable=0;fillColor=none;top=0;left=0;bottom=0;right=0;align=left;spacingLeft=6;overflow=hidden;html=1;whiteSpace=wrap;fontFamily=Courier New;fontSize=15;" parent="0sBkbebi3kNoGjMeTg1P-1" vertex="1">
          <mxGeometry x="60" width="170" height="30" as="geometry">
            <mxRectangle width="170" height="30" as="alternateBounds" />
          </mxGeometry>
        </mxCell>
        <mxCell id="IVFl2d47y_IsgbFFyikV-85" value="" style="shape=tableRow;horizontal=0;startSize=0;swimlaneHead=0;swimlaneBody=0;fillColor=none;collapsible=0;dropTarget=0;points=[[0,0.5],[1,0.5]];portConstraint=eastwest;top=0;left=0;right=0;bottom=0;html=1;" parent="dCn2HgZfOZdPRtcsAnI8-27" vertex="1">
          <mxGeometry y="180" width="230" height="30" as="geometry" />
        </mxCell>
        <mxCell id="IVFl2d47y_IsgbFFyikV-86" value="" style="shape=partialRectangle;connectable=0;fillColor=none;top=0;left=0;bottom=0;right=0;editable=1;overflow=hidden;html=1;whiteSpace=wrap;fontFamily=Courier New;fontSize=15;" parent="IVFl2d47y_IsgbFFyikV-85" vertex="1">
          <mxGeometry width="60" height="30" as="geometry">
            <mxRectangle width="60" height="30" as="alternateBounds" />
          </mxGeometry>
        </mxCell>
        <mxCell id="IVFl2d47y_IsgbFFyikV-87" value="solution_date" style="shape=partialRectangle;connectable=0;fillColor=none;top=0;left=0;bottom=0;right=0;align=left;spacingLeft=6;overflow=hidden;html=1;whiteSpace=wrap;fontFamily=Courier New;fontSize=15;" parent="IVFl2d47y_IsgbFFyikV-85" vertex="1">
          <mxGeometry x="60" width="170" height="30" as="geometry">
            <mxRectangle width="170" height="30" as="alternateBounds" />
          </mxGeometry>
        </mxCell>
        <mxCell id="IVFl2d47y_IsgbFFyikV-57" value="" style="shape=tableRow;horizontal=0;startSize=0;swimlaneHead=0;swimlaneBody=0;fillColor=none;collapsible=0;dropTarget=0;points=[[0,0.5],[1,0.5]];portConstraint=eastwest;top=0;left=0;right=0;bottom=0;html=1;" parent="dCn2HgZfOZdPRtcsAnI8-27" vertex="1">
          <mxGeometry y="210" width="230" height="30" as="geometry" />
        </mxCell>
        <mxCell id="IVFl2d47y_IsgbFFyikV-58" value="" style="shape=partialRectangle;connectable=0;fillColor=none;top=0;left=0;bottom=0;right=0;editable=1;overflow=hidden;html=1;whiteSpace=wrap;fontFamily=Courier New;fontSize=15;" parent="IVFl2d47y_IsgbFFyikV-57" vertex="1">
          <mxGeometry width="60" height="30" as="geometry">
            <mxRectangle width="60" height="30" as="alternateBounds" />
          </mxGeometry>
        </mxCell>
        <mxCell id="IVFl2d47y_IsgbFFyikV-59" value="photo" style="shape=partialRectangle;connectable=0;fillColor=none;top=0;left=0;bottom=0;right=0;align=left;spacingLeft=6;overflow=hidden;html=1;whiteSpace=wrap;fontFamily=Courier New;fontSize=15;" parent="IVFl2d47y_IsgbFFyikV-57" vertex="1">
          <mxGeometry x="60" width="170" height="30" as="geometry">
            <mxRectangle width="170" height="30" as="alternateBounds" />
          </mxGeometry>
        </mxCell>
        <mxCell id="IVFl2d47y_IsgbFFyikV-67" value="" style="shape=tableRow;horizontal=0;startSize=0;swimlaneHead=0;swimlaneBody=0;fillColor=none;collapsible=0;dropTarget=0;points=[[0,0.5],[1,0.5]];portConstraint=eastwest;top=0;left=0;right=0;bottom=0;html=1;" parent="dCn2HgZfOZdPRtcsAnI8-27" vertex="1">
          <mxGeometry y="240" width="230" height="30" as="geometry" />
        </mxCell>
        <mxCell id="IVFl2d47y_IsgbFFyikV-68" value="" style="shape=partialRectangle;connectable=0;fillColor=none;top=0;left=0;bottom=0;right=0;editable=1;overflow=hidden;html=1;whiteSpace=wrap;fontFamily=Courier New;fontSize=15;" parent="IVFl2d47y_IsgbFFyikV-67" vertex="1">
          <mxGeometry width="60" height="30" as="geometry">
            <mxRectangle width="60" height="30" as="alternateBounds" />
          </mxGeometry>
        </mxCell>
        <mxCell id="IVFl2d47y_IsgbFFyikV-69" value="place_detail" style="shape=partialRectangle;connectable=0;fillColor=none;top=0;left=0;bottom=0;right=0;align=left;spacingLeft=6;overflow=hidden;html=1;whiteSpace=wrap;fontFamily=Courier New;fontSize=15;" parent="IVFl2d47y_IsgbFFyikV-67" vertex="1">
          <mxGeometry x="60" width="170" height="30" as="geometry">
            <mxRectangle width="170" height="30" as="alternateBounds" />
          </mxGeometry>
        </mxCell>
        <mxCell id="dCn2HgZfOZdPRtcsAnI8-40" value="user" style="shape=table;startSize=30;container=1;collapsible=1;childLayout=tableLayout;fixedRows=1;rowLines=0;fontStyle=1;align=center;resizeLast=1;html=1;whiteSpace=wrap;fontFamily=Courier New;fontSize=15;" parent="1" vertex="1">
          <mxGeometry x="230" y="480" width="240" height="240" as="geometry" />
        </mxCell>
        <mxCell id="dCn2HgZfOZdPRtcsAnI8-44" value="" style="shape=tableRow;horizontal=0;startSize=0;swimlaneHead=0;swimlaneBody=0;fillColor=none;collapsible=0;dropTarget=0;points=[[0,0.5],[1,0.5]];portConstraint=eastwest;top=0;left=0;right=0;bottom=1;html=1;" parent="dCn2HgZfOZdPRtcsAnI8-40" vertex="1">
          <mxGeometry y="30" width="240" height="30" as="geometry" />
        </mxCell>
        <mxCell id="dCn2HgZfOZdPRtcsAnI8-45" value="&lt;font face=&quot;Courier New&quot;&gt;PK&lt;/font&gt;" style="shape=partialRectangle;connectable=0;fillColor=none;top=0;left=0;bottom=0;right=0;fontStyle=1;overflow=hidden;html=1;whiteSpace=wrap;fontSize=15;" parent="dCn2HgZfOZdPRtcsAnI8-44" vertex="1">
          <mxGeometry width="60" height="30" as="geometry">
            <mxRectangle width="60" height="30" as="alternateBounds" />
          </mxGeometry>
        </mxCell>
        <mxCell id="dCn2HgZfOZdPRtcsAnI8-46" value="&lt;font face=&quot;Courier New&quot;&gt;id_user&lt;/font&gt;" style="shape=partialRectangle;connectable=0;fillColor=none;top=0;left=0;bottom=0;right=0;align=left;spacingLeft=6;fontStyle=5;overflow=hidden;html=1;whiteSpace=wrap;fontSize=15;" parent="dCn2HgZfOZdPRtcsAnI8-44" vertex="1">
          <mxGeometry x="60" width="180" height="30" as="geometry">
            <mxRectangle width="180" height="30" as="alternateBounds" />
          </mxGeometry>
        </mxCell>
        <mxCell id="dCn2HgZfOZdPRtcsAnI8-47" value="" style="shape=tableRow;horizontal=0;startSize=0;swimlaneHead=0;swimlaneBody=0;fillColor=none;collapsible=0;dropTarget=0;points=[[0,0.5],[1,0.5]];portConstraint=eastwest;top=0;left=0;right=0;bottom=0;html=1;" parent="dCn2HgZfOZdPRtcsAnI8-40" vertex="1">
          <mxGeometry y="60" width="240" height="30" as="geometry" />
        </mxCell>
        <mxCell id="dCn2HgZfOZdPRtcsAnI8-48" value="" style="shape=partialRectangle;connectable=0;fillColor=none;top=0;left=0;bottom=0;right=0;editable=1;overflow=hidden;html=1;whiteSpace=wrap;fontFamily=Courier New;fontSize=15;" parent="dCn2HgZfOZdPRtcsAnI8-47" vertex="1">
          <mxGeometry width="60" height="30" as="geometry">
            <mxRectangle width="60" height="30" as="alternateBounds" />
          </mxGeometry>
        </mxCell>
        <mxCell id="dCn2HgZfOZdPRtcsAnI8-49" value="user_name" style="shape=partialRectangle;connectable=0;fillColor=none;top=0;left=0;bottom=0;right=0;align=left;spacingLeft=6;overflow=hidden;html=1;whiteSpace=wrap;fontFamily=Courier New;fontSize=15;" parent="dCn2HgZfOZdPRtcsAnI8-47" vertex="1">
          <mxGeometry x="60" width="180" height="30" as="geometry">
            <mxRectangle width="180" height="30" as="alternateBounds" />
          </mxGeometry>
        </mxCell>
        <mxCell id="VHcdEWyOoPKD9jFSE-ge-16" value="" style="shape=tableRow;horizontal=0;startSize=0;swimlaneHead=0;swimlaneBody=0;fillColor=none;collapsible=0;dropTarget=0;points=[[0,0.5],[1,0.5]];portConstraint=eastwest;top=0;left=0;right=0;bottom=0;html=1;" parent="dCn2HgZfOZdPRtcsAnI8-40" vertex="1">
          <mxGeometry y="90" width="240" height="30" as="geometry" />
        </mxCell>
        <mxCell id="VHcdEWyOoPKD9jFSE-ge-17" value="" style="shape=partialRectangle;connectable=0;fillColor=none;top=0;left=0;bottom=0;right=0;editable=1;overflow=hidden;html=1;whiteSpace=wrap;fontFamily=Courier New;fontSize=15;" parent="VHcdEWyOoPKD9jFSE-ge-16" vertex="1">
          <mxGeometry width="60" height="30" as="geometry">
            <mxRectangle width="60" height="30" as="alternateBounds" />
          </mxGeometry>
        </mxCell>
        <mxCell id="VHcdEWyOoPKD9jFSE-ge-18" value="pass" style="shape=partialRectangle;connectable=0;fillColor=none;top=0;left=0;bottom=0;right=0;align=left;spacingLeft=6;overflow=hidden;html=1;whiteSpace=wrap;fontFamily=Courier New;fontSize=15;" parent="VHcdEWyOoPKD9jFSE-ge-16" vertex="1">
          <mxGeometry x="60" width="180" height="30" as="geometry">
            <mxRectangle width="180" height="30" as="alternateBounds" />
          </mxGeometry>
        </mxCell>
        <mxCell id="VHcdEWyOoPKD9jFSE-ge-10" value="" style="shape=tableRow;horizontal=0;startSize=0;swimlaneHead=0;swimlaneBody=0;fillColor=none;collapsible=0;dropTarget=0;points=[[0,0.5],[1,0.5]];portConstraint=eastwest;top=0;left=0;right=0;bottom=0;html=1;" parent="dCn2HgZfOZdPRtcsAnI8-40" vertex="1">
          <mxGeometry y="120" width="240" height="30" as="geometry" />
        </mxCell>
        <mxCell id="VHcdEWyOoPKD9jFSE-ge-11" value="" style="shape=partialRectangle;connectable=0;fillColor=none;top=0;left=0;bottom=0;right=0;editable=1;overflow=hidden;html=1;whiteSpace=wrap;fontFamily=Courier New;fontSize=15;" parent="VHcdEWyOoPKD9jFSE-ge-10" vertex="1">
          <mxGeometry width="60" height="30" as="geometry">
            <mxRectangle width="60" height="30" as="alternateBounds" />
          </mxGeometry>
        </mxCell>
        <mxCell id="VHcdEWyOoPKD9jFSE-ge-12" value="user_type" style="shape=partialRectangle;connectable=0;fillColor=none;top=0;left=0;bottom=0;right=0;align=left;spacingLeft=6;overflow=hidden;html=1;whiteSpace=wrap;fontFamily=Courier New;fontSize=15;" parent="VHcdEWyOoPKD9jFSE-ge-10" vertex="1">
          <mxGeometry x="60" width="180" height="30" as="geometry">
            <mxRectangle width="180" height="30" as="alternateBounds" />
          </mxGeometry>
        </mxCell>
        <mxCell id="VHcdEWyOoPKD9jFSE-ge-13" value="" style="shape=tableRow;horizontal=0;startSize=0;swimlaneHead=0;swimlaneBody=0;fillColor=none;collapsible=0;dropTarget=0;points=[[0,0.5],[1,0.5]];portConstraint=eastwest;top=0;left=0;right=0;bottom=0;html=1;" parent="dCn2HgZfOZdPRtcsAnI8-40" vertex="1">
          <mxGeometry y="150" width="240" height="30" as="geometry" />
        </mxCell>
        <mxCell id="VHcdEWyOoPKD9jFSE-ge-14" value="" style="shape=partialRectangle;connectable=0;fillColor=none;top=0;left=0;bottom=0;right=0;editable=1;overflow=hidden;html=1;whiteSpace=wrap;fontFamily=Courier New;fontSize=15;" parent="VHcdEWyOoPKD9jFSE-ge-13" vertex="1">
          <mxGeometry width="60" height="30" as="geometry">
            <mxRectangle width="60" height="30" as="alternateBounds" />
          </mxGeometry>
        </mxCell>
        <mxCell id="VHcdEWyOoPKD9jFSE-ge-15" value="email" style="shape=partialRectangle;connectable=0;fillColor=none;top=0;left=0;bottom=0;right=0;align=left;spacingLeft=6;overflow=hidden;html=1;whiteSpace=wrap;fontFamily=Courier New;fontSize=15;" parent="VHcdEWyOoPKD9jFSE-ge-13" vertex="1">
          <mxGeometry x="60" width="180" height="30" as="geometry">
            <mxRectangle width="180" height="30" as="alternateBounds" />
          </mxGeometry>
        </mxCell>
        <mxCell id="IVFl2d47y_IsgbFFyikV-54" value="" style="shape=tableRow;horizontal=0;startSize=0;swimlaneHead=0;swimlaneBody=0;fillColor=none;collapsible=0;dropTarget=0;points=[[0,0.5],[1,0.5]];portConstraint=eastwest;top=0;left=0;right=0;bottom=0;html=1;" parent="dCn2HgZfOZdPRtcsAnI8-40" vertex="1">
          <mxGeometry y="180" width="240" height="30" as="geometry" />
        </mxCell>
        <mxCell id="IVFl2d47y_IsgbFFyikV-55" value="" style="shape=partialRectangle;connectable=0;fillColor=none;top=0;left=0;bottom=0;right=0;editable=1;overflow=hidden;html=1;whiteSpace=wrap;fontFamily=Courier New;fontSize=15;" parent="IVFl2d47y_IsgbFFyikV-54" vertex="1">
          <mxGeometry width="60" height="30" as="geometry">
            <mxRectangle width="60" height="30" as="alternateBounds" />
          </mxGeometry>
        </mxCell>
        <mxCell id="IVFl2d47y_IsgbFFyikV-56" value="create_date" style="shape=partialRectangle;connectable=0;fillColor=none;top=0;left=0;bottom=0;right=0;align=left;spacingLeft=6;overflow=hidden;html=1;whiteSpace=wrap;fontFamily=Courier New;fontSize=15;" parent="IVFl2d47y_IsgbFFyikV-54" vertex="1">
          <mxGeometry x="60" width="180" height="30" as="geometry">
            <mxRectangle width="180" height="30" as="alternateBounds" />
          </mxGeometry>
        </mxCell>
        <mxCell id="0sBkbebi3kNoGjMeTg1P-24" value="" style="shape=tableRow;horizontal=0;startSize=0;swimlaneHead=0;swimlaneBody=0;fillColor=none;collapsible=0;dropTarget=0;points=[[0,0.5],[1,0.5]];portConstraint=eastwest;top=0;left=0;right=0;bottom=0;html=1;" parent="dCn2HgZfOZdPRtcsAnI8-40" vertex="1">
          <mxGeometry y="210" width="240" height="30" as="geometry" />
        </mxCell>
        <mxCell id="0sBkbebi3kNoGjMeTg1P-25" value="" style="shape=partialRectangle;connectable=0;fillColor=none;top=0;left=0;bottom=0;right=0;editable=1;overflow=hidden;html=1;whiteSpace=wrap;fontFamily=Courier New;fontSize=15;" parent="0sBkbebi3kNoGjMeTg1P-24" vertex="1">
          <mxGeometry width="60" height="30" as="geometry">
            <mxRectangle width="60" height="30" as="alternateBounds" />
          </mxGeometry>
        </mxCell>
        <mxCell id="0sBkbebi3kNoGjMeTg1P-26" value="recovery_code" style="shape=partialRectangle;connectable=0;fillColor=none;top=0;left=0;bottom=0;right=0;align=left;spacingLeft=6;overflow=hidden;html=1;whiteSpace=wrap;fontFamily=Courier New;fontSize=15;" parent="0sBkbebi3kNoGjMeTg1P-24" vertex="1">
          <mxGeometry x="60" width="180" height="30" as="geometry">
            <mxRectangle width="180" height="30" as="alternateBounds" />
          </mxGeometry>
        </mxCell>
        <mxCell id="IVFl2d47y_IsgbFFyikV-1" value="city" style="shape=table;startSize=30;container=1;collapsible=1;childLayout=tableLayout;fixedRows=1;rowLines=0;fontStyle=1;align=center;resizeLast=1;html=1;whiteSpace=wrap;fontFamily=Courier New;fontSize=15;" parent="1" vertex="1">
          <mxGeometry x="580" y="160" width="240" height="100" as="geometry" />
        </mxCell>
        <mxCell id="IVFl2d47y_IsgbFFyikV-5" value="" style="shape=tableRow;horizontal=0;startSize=0;swimlaneHead=0;swimlaneBody=0;fillColor=none;collapsible=0;dropTarget=0;points=[[0,0.5],[1,0.5]];portConstraint=eastwest;top=0;left=0;right=0;bottom=1;html=1;" parent="IVFl2d47y_IsgbFFyikV-1" vertex="1">
          <mxGeometry y="30" width="240" height="30" as="geometry" />
        </mxCell>
        <mxCell id="IVFl2d47y_IsgbFFyikV-6" value="&lt;font face=&quot;Courier New&quot;&gt;PK&lt;/font&gt;" style="shape=partialRectangle;connectable=0;fillColor=none;top=0;left=0;bottom=0;right=0;fontStyle=1;overflow=hidden;html=1;whiteSpace=wrap;fontSize=15;" parent="IVFl2d47y_IsgbFFyikV-5" vertex="1">
          <mxGeometry width="60" height="30" as="geometry">
            <mxRectangle width="60" height="30" as="alternateBounds" />
          </mxGeometry>
        </mxCell>
        <mxCell id="IVFl2d47y_IsgbFFyikV-7" value="&lt;font face=&quot;Courier New&quot;&gt;id_city&lt;/font&gt;" style="shape=partialRectangle;connectable=0;fillColor=none;top=0;left=0;bottom=0;right=0;align=left;spacingLeft=6;fontStyle=1;overflow=hidden;html=1;whiteSpace=wrap;fontSize=15;" parent="IVFl2d47y_IsgbFFyikV-5" vertex="1">
          <mxGeometry x="60" width="180" height="30" as="geometry">
            <mxRectangle width="180" height="30" as="alternateBounds" />
          </mxGeometry>
        </mxCell>
        <mxCell id="IVFl2d47y_IsgbFFyikV-8" value="" style="shape=tableRow;horizontal=0;startSize=0;swimlaneHead=0;swimlaneBody=0;fillColor=none;collapsible=0;dropTarget=0;points=[[0,0.5],[1,0.5]];portConstraint=eastwest;top=0;left=0;right=0;bottom=0;html=1;" parent="IVFl2d47y_IsgbFFyikV-1" vertex="1">
          <mxGeometry y="60" width="240" height="30" as="geometry" />
        </mxCell>
        <mxCell id="IVFl2d47y_IsgbFFyikV-9" value="" style="shape=partialRectangle;connectable=0;fillColor=none;top=0;left=0;bottom=0;right=0;editable=1;overflow=hidden;html=1;whiteSpace=wrap;fontFamily=Courier New;fontSize=15;" parent="IVFl2d47y_IsgbFFyikV-8" vertex="1">
          <mxGeometry width="60" height="30" as="geometry">
            <mxRectangle width="60" height="30" as="alternateBounds" />
          </mxGeometry>
        </mxCell>
        <mxCell id="IVFl2d47y_IsgbFFyikV-10" value="city_name" style="shape=partialRectangle;connectable=0;fillColor=none;top=0;left=0;bottom=0;right=0;align=left;spacingLeft=6;overflow=hidden;html=1;whiteSpace=wrap;fontFamily=Courier New;fontSize=15;" parent="IVFl2d47y_IsgbFFyikV-8" vertex="1">
          <mxGeometry x="60" width="180" height="30" as="geometry">
            <mxRectangle width="180" height="30" as="alternateBounds" />
          </mxGeometry>
        </mxCell>
        <mxCell id="IVFl2d47y_IsgbFFyikV-63" style="edgeStyle=orthogonalEdgeStyle;rounded=0;orthogonalLoop=1;jettySize=auto;html=1;exitX=0.5;exitY=1;exitDx=0;exitDy=0;entryX=0.458;entryY=-0.004;entryDx=0;entryDy=0;entryPerimeter=0;" parent="1" source="IVFl2d47y_IsgbFFyikV-1" target="dCn2HgZfOZdPRtcsAnI8-14" edge="1">
          <mxGeometry relative="1" as="geometry" />
        </mxCell>
        <mxCell id="IVFl2d47y_IsgbFFyikV-104" style="edgeStyle=orthogonalEdgeStyle;rounded=0;orthogonalLoop=1;jettySize=auto;html=1;exitX=0.5;exitY=0;exitDx=0;exitDy=0;entryX=0.292;entryY=1.005;entryDx=0;entryDy=0;entryPerimeter=0;" parent="1" source="IVFl2d47y_IsgbFFyikV-88" target="0sBkbebi3kNoGjMeTg1P-24" edge="1">
          <mxGeometry relative="1" as="geometry">
            <mxPoint x="300" y="730" as="targetPoint" />
          </mxGeometry>
        </mxCell>
        <mxCell id="IVFl2d47y_IsgbFFyikV-88" value="denunciar_problema" style="shape=table;startSize=30;container=1;collapsible=1;childLayout=tableLayout;fixedRows=1;rowLines=0;fontStyle=1;align=center;resizeLast=1;html=1;whiteSpace=wrap;fontFamily=Courier New;fontSize=15;" parent="1" vertex="1">
          <mxGeometry x="483" y="830" width="250" height="150" as="geometry" />
        </mxCell>
        <mxCell id="IVFl2d47y_IsgbFFyikV-95" value="" style="shape=tableRow;horizontal=0;startSize=0;swimlaneHead=0;swimlaneBody=0;fillColor=none;collapsible=0;dropTarget=0;points=[[0,0.5],[1,0.5]];portConstraint=eastwest;top=0;left=0;right=0;bottom=1;html=1;" parent="IVFl2d47y_IsgbFFyikV-88" vertex="1">
          <mxGeometry y="30" width="250" height="30" as="geometry" />
        </mxCell>
        <mxCell id="IVFl2d47y_IsgbFFyikV-96" value="&lt;font face=&quot;Courier New&quot;&gt;FK&lt;/font&gt;" style="shape=partialRectangle;connectable=0;fillColor=none;top=0;left=0;bottom=0;right=0;fontStyle=1;overflow=hidden;html=1;whiteSpace=wrap;fontSize=15;" parent="IVFl2d47y_IsgbFFyikV-95" vertex="1">
          <mxGeometry width="60" height="30" as="geometry">
            <mxRectangle width="60" height="30" as="alternateBounds" />
          </mxGeometry>
        </mxCell>
        <mxCell id="IVFl2d47y_IsgbFFyikV-97" value="&lt;font face=&quot;Courier New&quot;&gt;id_problem&lt;/font&gt;" style="shape=partialRectangle;connectable=0;fillColor=none;top=0;left=0;bottom=0;right=0;align=left;spacingLeft=6;fontStyle=1;overflow=hidden;html=1;whiteSpace=wrap;fontSize=15;" parent="IVFl2d47y_IsgbFFyikV-95" vertex="1">
          <mxGeometry x="60" width="190" height="30" as="geometry">
            <mxRectangle width="190" height="30" as="alternateBounds" />
          </mxGeometry>
        </mxCell>
        <mxCell id="IVFl2d47y_IsgbFFyikV-89" value="" style="shape=tableRow;horizontal=0;startSize=0;swimlaneHead=0;swimlaneBody=0;fillColor=none;collapsible=0;dropTarget=0;points=[[0,0.5],[1,0.5]];portConstraint=eastwest;top=0;left=0;right=0;bottom=0;html=1;fontFamily=Courier New;fontSize=15;" parent="IVFl2d47y_IsgbFFyikV-88" vertex="1">
          <mxGeometry y="60" width="250" height="30" as="geometry" />
        </mxCell>
        <mxCell id="IVFl2d47y_IsgbFFyikV-90" value="PK" style="shape=partialRectangle;connectable=0;fillColor=none;top=0;left=0;bottom=0;right=0;fontStyle=1;overflow=hidden;html=1;whiteSpace=wrap;fontFamily=Courier New;fontSize=15;" parent="IVFl2d47y_IsgbFFyikV-89" vertex="1">
          <mxGeometry width="60" height="30" as="geometry">
            <mxRectangle width="60" height="30" as="alternateBounds" />
          </mxGeometry>
        </mxCell>
        <mxCell id="IVFl2d47y_IsgbFFyikV-91" value="district_name" style="shape=partialRectangle;connectable=0;fillColor=none;top=0;left=0;bottom=0;right=0;align=left;spacingLeft=6;fontStyle=5;overflow=hidden;html=1;whiteSpace=wrap;fontFamily=Courier New;fontSize=15;" parent="IVFl2d47y_IsgbFFyikV-89" vertex="1">
          <mxGeometry x="60" width="190" height="30" as="geometry">
            <mxRectangle width="190" height="30" as="alternateBounds" />
          </mxGeometry>
        </mxCell>
        <mxCell id="IVFl2d47y_IsgbFFyikV-92" value="" style="shape=tableRow;horizontal=0;startSize=0;swimlaneHead=0;swimlaneBody=0;fillColor=none;collapsible=0;dropTarget=0;points=[[0,0.5],[1,0.5]];portConstraint=eastwest;top=0;left=0;right=0;bottom=1;html=1;" parent="IVFl2d47y_IsgbFFyikV-88" vertex="1">
          <mxGeometry y="90" width="250" height="30" as="geometry" />
        </mxCell>
        <mxCell id="IVFl2d47y_IsgbFFyikV-93" value="&lt;font face=&quot;Courier New&quot;&gt;FK&lt;/font&gt;" style="shape=partialRectangle;connectable=0;fillColor=none;top=0;left=0;bottom=0;right=0;fontStyle=1;overflow=hidden;html=1;whiteSpace=wrap;fontSize=15;" parent="IVFl2d47y_IsgbFFyikV-92" vertex="1">
          <mxGeometry width="60" height="30" as="geometry">
            <mxRectangle width="60" height="30" as="alternateBounds" />
          </mxGeometry>
        </mxCell>
        <mxCell id="IVFl2d47y_IsgbFFyikV-94" value="&lt;font face=&quot;Courier New&quot;&gt;user_name&lt;/font&gt;" style="shape=partialRectangle;connectable=0;fillColor=none;top=0;left=0;bottom=0;right=0;align=left;spacingLeft=6;fontStyle=1;overflow=hidden;html=1;whiteSpace=wrap;fontSize=15;" parent="IVFl2d47y_IsgbFFyikV-92" vertex="1">
          <mxGeometry x="60" width="190" height="30" as="geometry">
            <mxRectangle width="190" height="30" as="alternateBounds" />
          </mxGeometry>
        </mxCell>
        <mxCell id="IVFl2d47y_IsgbFFyikV-101" value="" style="shape=tableRow;horizontal=0;startSize=0;swimlaneHead=0;swimlaneBody=0;fillColor=none;collapsible=0;dropTarget=0;points=[[0,0.5],[1,0.5]];portConstraint=eastwest;top=0;left=0;right=0;bottom=0;html=1;" parent="IVFl2d47y_IsgbFFyikV-88" vertex="1">
          <mxGeometry y="120" width="250" height="30" as="geometry" />
        </mxCell>
        <mxCell id="IVFl2d47y_IsgbFFyikV-102" value="" style="shape=partialRectangle;connectable=0;fillColor=none;top=0;left=0;bottom=0;right=0;editable=1;overflow=hidden;html=1;whiteSpace=wrap;fontFamily=Courier New;fontSize=15;" parent="IVFl2d47y_IsgbFFyikV-101" vertex="1">
          <mxGeometry width="60" height="30" as="geometry">
            <mxRectangle width="60" height="30" as="alternateBounds" />
          </mxGeometry>
        </mxCell>
        <mxCell id="IVFl2d47y_IsgbFFyikV-103" value="report_date" style="shape=partialRectangle;connectable=0;fillColor=none;top=0;left=0;bottom=0;right=0;align=left;spacingLeft=6;overflow=hidden;html=1;whiteSpace=wrap;fontFamily=Courier New;fontSize=15;" parent="IVFl2d47y_IsgbFFyikV-101" vertex="1">
          <mxGeometry x="60" width="190" height="30" as="geometry">
            <mxRectangle width="190" height="30" as="alternateBounds" />
          </mxGeometry>
        </mxCell>
        <mxCell id="0sBkbebi3kNoGjMeTg1P-32" style="edgeStyle=orthogonalEdgeStyle;rounded=0;orthogonalLoop=1;jettySize=auto;html=1;exitX=0.5;exitY=0;exitDx=0;exitDy=0;entryX=0.648;entryY=1;entryDx=0;entryDy=0;entryPerimeter=0;" parent="1" source="IVFl2d47y_IsgbFFyikV-88" target="IVFl2d47y_IsgbFFyikV-67" edge="1">
          <mxGeometry relative="1" as="geometry" />
        </mxCell>
        <mxCell id="0sBkbebi3kNoGjMeTg1P-33" style="edgeStyle=orthogonalEdgeStyle;rounded=0;orthogonalLoop=1;jettySize=auto;html=1;exitX=1;exitY=0.5;exitDx=0;exitDy=0;" parent="1" source="VHcdEWyOoPKD9jFSE-ge-16" target="dCn2HgZfOZdPRtcsAnI8-34" edge="1">
          <mxGeometry relative="1" as="geometry" />
        </mxCell>
        <mxCell id="pbRUydS0OcypU-UDQOR1-1" style="edgeStyle=orthogonalEdgeStyle;rounded=0;orthogonalLoop=1;jettySize=auto;html=1;exitX=0.439;exitY=0.941;exitDx=0;exitDy=0;exitPerimeter=0;" edge="1" parent="1" source="A0xj03TIXSlnZQW4q2QY-1" target="dCn2HgZfOZdPRtcsAnI8-27">
          <mxGeometry relative="1" as="geometry" />
        </mxCell>
      </root>
    </mxGraphModel>
  </diagram>
</mxfile>
